<svg xmlns="http://www.w3.org/2000/svg" xmlns:xlink="http://www.w3.org/1999/xlink">

  <symbol id="chat" viewBox="0 0 16 16">
    <path fill-rule="evenodd" d="M16 2a2 2 0 0 0-2-2H2a2 2 0 0 0-2 2v8a2 2 0 0 0 2 2h9.586a1 1 0 0 1 .707.293l2.853 2.853a.5.5 0 0 0 .854-.353V2zM3.5 3a.5.5 0 0 0 0 1h9a.5.5 0 0 0 0-1h-9zm0 2.5a.5.5 0 0 0 0 1h9a.5.5 0 0 0 0-1h-9zm0 2.5a.5.5 0 0 0 0 1h5a.5.5 0 0 0 0-1h-5z"/>
  </symbol>

  <symbol id="video" viewBox="0 0 16 16">
    <path fill-rule="evenodd" d="M0 1a1 1 0 0 1 1-1h14a1 1 0 0 1 1 1v14a1 1 0 0 1-1 1H1a1 1 0 0 1-1-1V1zm4 0h8v6H4V1zm8 8H4v6h8V9zM1 1h2v2H1V1zm2 3H1v2h2V4zM1 7h2v2H1V7zm2 3H1v2h2v-2zm-2 3h2v2H1v-2zM15 1h-2v2h2V1zm-2 3h2v2h-2V4zm2 3h-2v2h2V7zm-2 3h2v2h-2v-2zm2 3h-2v2h2v-2z"/>
  </symbol>

  <symbol id="link" viewBox="0 0 16 16">
    <path d="M4.715 6.542L3.343 7.914a3 3 0 1 0 4.243 4.243l1.828-1.829A3 3 0 0 0 8.586 5.5L8 6.086a1.001 1.001 0 0 0-.154.199 2 2 0 0 1 .861 3.337L6.88 11.45a2 2 0 1 1-2.83-2.83l.793-.792a4.018 4.018 0 0 1-.128-1.287z"/>
    <path d="M6.586 4.672A3 3 0 0 0 7.414 9.5l.775-.776a2 2 0 0 1-.896-3.346L9.12 3.55a2 2 0 0 1 2.83 2.83l-.793.792c.112.42.155.855.128 1.287l1.372-1.372a3 3 0 0 0-4.243-4.243L6.586 4.672z"/>
  </symbol>

  <symbol id="twitter" viewBox="0 0 64 64">
	<path d="M512,93.8c-19.3,8.8-38.6,14-61.4,17.5c21-14,38.6-33.3,47.3-57.9c-21,12.3-43.8,21-66.6,26.3   c-19.3-21-47.3-33.3-77.1-33.3c-57.9,0-107,47.3-107,107c0,8.8,1.8,15.8,3.5,24.5c-87.7-3.5-166.6-47.3-219.2-110.5   c-8.8,12.3-14,29.8-14,49.1c0,36.8,19.3,70.1,47.3,87.7c-17.5,0-33.3-5.3-47.3-14v1.8c0,50.8,36.8,94.7,85.9,103.4   c-8.8,1.8-17.5,3.5-28,3.5c-7,0-14,0-19.3-1.8c14,42.1,52.6,73.6,99.9,73.6c-36.8,28.1-82.4,45.6-131.5,45.6   c-8.8,0-17.5,0-24.5-1.8c42.1,33.3,98.2,50.9,157.8,50.9c194.6,0,301.6-161.3,301.6-301.6v-14C480.4,134.1,498,116.6,512,93.8z"/>
  </symbol>

  <symbol id="meetup" viewBox="0 0 64 64">
    <path d="M31.969 26.984c-0.401-2.572-5.163-0.593-5.459-3.411-0.417-4 5.531-12.615 5.063-15.964-0.417-3.005-2.453-3.64-4.219-3.677-1.715-0.025-2.167 0.245-2.745 0.584-0.339 0.192-0.817 0.577-1.484-0.057-0.443-0.423-0.745-0.713-1.208-1.089-0.24-0.192-0.62-0.432-1.261-0.525-0.629-0.099-1.463 0-1.984 0.219-0.532 0.229-0.937 0.625-1.369 1-0.433 0.375-1.532 1.599-2.548 1.145-0.448-0.192-1.948-0.943-3.031-1.405-2.084-0.901-5.093 0.557-6.183 2.489-1.615 2.864-4.796 14.135-5.287 15.62-1.077 3.333 1.381 6.052 4.683 5.895 1.401-0.067 2.333-0.572 3.213-2.181 0.511-0.928 5.308-13.448 5.667-14.057 0.261-0.432 1.125-1.005 1.855-0.636 0.735 0.38 0.88 1.161 0.771 1.896-0.183 1.193-3.557 8.839-3.693 9.699-0.219 1.473 0.48 2.285 2.011 2.369 1.043 0.052 2.089-0.317 2.912-1.88 0.464-0.871 5.797-11.557 6.265-12.271 0.521-0.781 0.937-1.043 1.475-1.011 0.411 0.020 1.061 0.125 0.9 1.353-0.161 1.209-4.452 9.043-4.9 10.959-0.605 2.573 0.801 5.167 3.124 6.308 1.48 0.728 7.959 1.968 7.433-1.371z"/>
  </symbol>

</svg>
