<svg xmlns="http://www.w3.org/2000/svg" xmlns:xlink="http://www.w3.org/1999/xlink">

  <symbol id="chat" viewBox="0 0 16 16">
    <path fill-rule="evenodd" d="M16 2a2 2 0 0 0-2-2H2a2 2 0 0 0-2 2v8a2 2 0 0 0 2 2h9.586a1 1 0 0 1 .707.293l2.853 2.853a.5.5 0 0 0 .854-.353V2zM3.5 3a.5.5 0 0 0 0 1h9a.5.5 0 0 0 0-1h-9zm0 2.5a.5.5 0 0 0 0 1h9a.5.5 0 0 0 0-1h-9zm0 2.5a.5.5 0 0 0 0 1h5a.5.5 0 0 0 0-1h-5z"/>
  </symbol>

  <symbol id="video" viewBox="0 0 16 16">
    <path fill-rule="evenodd" d="M0 1a1 1 0 0 1 1-1h14a1 1 0 0 1 1 1v14a1 1 0 0 1-1 1H1a1 1 0 0 1-1-1V1zm4 0h8v6H4V1zm8 8H4v6h8V9zM1 1h2v2H1V1zm2 3H1v2h2V4zM1 7h2v2H1V7zm2 3H1v2h2v-2zm-2 3h2v2H1v-2zM15 1h-2v2h2V1zm-2 3h2v2h-2V4zm2 3h-2v2h2V7zm-2 3h2v2h-2v-2zm2 3h-2v2h2v-2z"/>
  </symbol>

  <symbol id="link" viewBox="0 0 16 16">
    <path d="M4.715 6.542L3.343 7.914a3 3 0 1 0 4.243 4.243l1.828-1.829A3 3 0 0 0 8.586 5.5L8 6.086a1.001 1.001 0 0 0-.154.199 2 2 0 0 1 .861 3.337L6.88 11.45a2 2 0 1 1-2.83-2.83l.793-.792a4.018 4.018 0 0 1-.128-1.287z"/>
    <path d="M6.586 4.672A3 3 0 0 0 7.414 9.5l.775-.776a2 2 0 0 1-.896-3.346L9.12 3.55a2 2 0 0 1 2.83 2.83l-.793.792c.112.42.155.855.128 1.287l1.372-1.372a3 3 0 0 0-4.243-4.243L6.586 4.672z"/>
  </symbol>

  <symbol id="twitter" viewBox="0 0 64 64">
    <path d="M64 12l-8 2c3-1 5-4 6-7-2 1-5 3-8 3a13 13 0 00-22 12C21 22 11 16 4 8c-3 6-1 14 5 18l-6-2c-1 6 4 12 10 13l-6 1c2 5 7 9 12 9-5 4-12 6-19 5a37 37 0 0057-33l7-7z"/>
  </symbol>

  <symbol id="meetup" viewbox="0 0 64 64">
    <path d="m0 0h150v150h0z" fill="none"/><path d="m43 46c0 5 3 10 7 11l7 1h5l2-3c0-2-1-3-2-3l-6-1c-2-1-3-2-3-5l1-6 9-20v-6c-1-3-3-5-6-6l-8 1h-3l-1-2c-3-2-6-2-9 0l-4 3h-3l-4-2-3-1c-5 0-9 2-11 6l-2 6c-4 8-6 17-9 25-1 4 1 8 4 10 2 2 5 2 8 1 2-1 4-2 5-5l10-27c1-1 4-2 5-1l1 3-1 3-7 17 2 4 5 1c1-1 3-2 3-4l12-24 2-2h3l1 2-1 1-8 17c-1 2-2 4-1 6z"/>
  </symbol>

  <symbol id="pdf" viewBox="0 0 482 482">
    <path d="M142 310c0-8-6-13-15-13l-8 1v26h6c11 0 17-5 17-14zM203 298h-9v57l7 1c17 0 29-10 29-31 0-18-10-27-27-27z"/>
    <path d="M315 0H122C94 0 70 23 70 51v190h-5c-11 0-20 9-20 21v125c0 12 9 21 20 21h5v23c0 28 24 51 52 51h264c28 0 51-23 51-51V121L315 0zM99 284l27-1c12 0 20 2 26 7 6 4 10 11 10 20 0 8-3 15-8 20-7 7-17 9-29 9h-6v31H99v-86zm287 167H122c-11 0-20-9-20-20v-23h246c12 0 21-9 21-21V262c0-12-9-21-21-21H102V51c0-11 9-20 20-20h182v68c0 19 16 35 35 35h66l1 297c0 11-9 20-20 20zm-212-81v-86l27-1c16 0 27 3 35 9 9 7 15 17 15 33s-6 28-14 35c-10 7-24 11-41 11l-22-1zm141-51v16h-31v35h-20v-87h53v16h-33v20h31z"/>
  </symbol>

</svg>
