<svg xmlns="http://www.w3.org/2000/svg" xmlns:xlink="http://www.w3.org/1999/xlink">

  <symbol id="chat" viewBox="0 0 16 16">
    <path fill-rule="evenodd" d="M16 2a2 2 0 0 0-2-2H2a2 2 0 0 0-2 2v8a2 2 0 0 0 2 2h9.586a1 1 0 0 1 .707.293l2.853 2.853a.5.5 0 0 0 .854-.353V2zM3.5 3a.5.5 0 0 0 0 1h9a.5.5 0 0 0 0-1h-9zm0 2.5a.5.5 0 0 0 0 1h9a.5.5 0 0 0 0-1h-9zm0 2.5a.5.5 0 0 0 0 1h5a.5.5 0 0 0 0-1h-5z"/>
  </symbol>

  <symbol id="video" viewBox="0 0 16 16">
    <path fill-rule="evenodd" d="M0 1a1 1 0 0 1 1-1h14a1 1 0 0 1 1 1v14a1 1 0 0 1-1 1H1a1 1 0 0 1-1-1V1zm4 0h8v6H4V1zm8 8H4v6h8V9zM1 1h2v2H1V1zm2 3H1v2h2V4zM1 7h2v2H1V7zm2 3H1v2h2v-2zm-2 3h2v2H1v-2zM15 1h-2v2h2V1zm-2 3h2v2h-2V4zm2 3h-2v2h2V7zm-2 3h2v2h-2v-2zm2 3h-2v2h2v-2z"/>
  </symbol>
</svg>
